<svg xmlns="http://www.w3.org/2000/svg" width="1200" height="410" viewBox="0 0 1200 410" role="img" aria-labelledby="title desc">
  <title id="title">Fares Mohamed — AI Engineer</title>
  <desc id="desc">Building the systems around the model.</desc>
  <defs>
    <linearGradient id="bg" x1="0" y1="0" x2="1" y2="1">
      <stop stop-color="#071522"/>
      <stop offset="0.58" stop-color="#0a2038"/>
      <stop offset="1" stop-color="#171a3a"/>
    </linearGradient>
    <linearGradient id="accent" x1="0" x2="1">
      <stop stop-color="#3ee1d0"/>
      <stop offset="0.52" stop-color="#5b8cff"/>
      <stop offset="1" stop-color="#bd63ff"/>
    </linearGradient>
    <pattern id="grid" width="34" height="34" patternUnits="userSpaceOnUse">
      <path d="M34 0H0V34" fill="none" stroke="#7fa4c8" stroke-width="1" opacity=".08"/>
    </pattern>
  </defs>
  <rect width="1200" height="410" rx="28" fill="url(#bg)"/>
  <rect width="1200" height="410" rx="28" fill="url(#grid)"/>
  <circle cx="1015" cy="58" r="230" fill="#5b8cff" opacity=".07"/>
  <circle cx="1120" cy="350" r="210" fill="#bd63ff" opacity=".055"/>
  <rect x="66" y="67" width="112" height="7" rx="3.5" fill="url(#accent)"/>
  <text x="64" y="161" fill="#ffffff" font-family="Inter,Segoe UI,Arial,sans-serif" font-size="74" font-weight="750" letter-spacing="-2">Fares Mohamed</text>
  <text x="67" y="221" fill="#83e8df" font-family="Inter,Segoe UI,Arial,sans-serif" font-size="31" font-weight="700" letter-spacing="4">AI ENGINEER</text>
  <text x="67" y="291" fill="#d9e2ed" font-family="Inter,Segoe UI,Arial,sans-serif" font-size="30">Building the systems around the model.</text>
  <text x="68" y="342" fill="#8fa7c1" font-family="Inter,Segoe UI,Arial,sans-serif" font-size="21">AI  ·  APIs  ·  DATA  ·  PRODUCT  ·  OPERATIONS</text>
  <g transform="translate(913 79)">
    <rect x="0" y="0" width="205" height="205" rx="44" fill="#0c1a31" stroke="url(#accent)" stroke-width="3"/>
    <text x="102.5" y="131" text-anchor="middle" fill="#ffffff" font-family="Inter,Segoe UI,Arial,sans-serif" font-size="92" font-weight="750" letter-spacing="-7">FM</text>
    <circle cx="20" cy="20" r="5" fill="#3ee1d0"/><circle cx="185" cy="20" r="5" fill="#5b8cff"/><circle cx="185" cy="185" r="5" fill="#bd63ff"/>
  </g>
  <rect x="66" y="382" width="1068" height="3" rx="1.5" fill="url(#accent)" opacity=".85"/>
</svg>
